<?xml version="1.0" encoding="utf-8"?>
<!-- Generator: Adobe Illustrator 17.0.0, SVG Export Plug-In . SVG Version: 6.00 Build 0)  -->
<!DOCTYPE svg PUBLIC "-//W3C//DTD SVG 1.1//EN" "http://www.w3.org/Graphics/SVG/1.1/DTD/svg11.dtd">
<svg version="1.1" id="Layer_1" xmlns="http://www.w3.org/2000/svg" xmlns:xlink="http://www.w3.org/1999/xlink" x="0px" y="0px"
	 width="595.377px" height="72.711px" viewBox="643.6 654.789 595.377 72.711"
	 enable-background="new 643.6 654.789 595.377 72.711" xml:space="preserve">
<g>
	<g>
		<g>
			<g>
				<g>
					<path d="M700.487,725.753v-7.281c-5.048,5.728-11.941,8.737-20.775,8.737c-19.416,0-36.113-15.824-36.113-36.404
						c0-20.969,17.086-36.016,35.822-36.016c10.29,0,15.727,4.077,19.318,6.407v-5.242h14.27v22.91h-18.93
						c-3.786-4.466-8.155-6.893-14.173-6.893c-10.873,0-19.027,7.96-19.027,18.736c0,11.164,8.64,19.124,19.027,19.124
						c6.407,0,12.038-3.301,15.435-9.028h-19.998v-14.27h39.122v39.122h-14.076v0.097H700.487z"/>
					<path d="M741.745,701.678v9.708h5.436v14.367h-26.405v-14.367h5.533v-23.978h-5.533v-14.27h19.61v7.96
						c4.271-6.407,8.543-8.252,14.95-8.64v15.824C746.502,688.864,741.745,693.523,741.745,701.678z"/>
					<path d="M784.071,727.501c-15.435,0-27.958-12.62-27.958-27.958s12.426-27.861,27.958-27.861
						c15.532,0,27.958,12.329,27.958,27.764C812.03,714.783,799.604,727.501,784.071,727.501z M784.071,686.825
						c-6.795,0-12.232,5.728-12.232,12.62s5.436,12.717,12.232,12.717c6.795,0,12.232-5.825,12.232-12.717
						C796.4,692.456,790.867,686.825,784.071,686.825z"/>
					<path d="M887.168,687.408l-12.814,38.346h-14.562l-8.349-27.473l-9.999,27.473h-13.882l-10.679-38.346h-5.242v-14.27h24.658
						v14.27h-4.369l4.369,16.6l9.319-30.871h12.62l9.028,30.968l4.854-16.6h-4.368v-14.27h25.434v14.27h-6.019V687.408z"/>
					<path d="M932.309,727.209c-18.833,0-36.016-15.532-36.016-36.598c0-20.386,16.6-35.822,35.239-35.822
						c7.863,0,14.367,2.524,19.416,7.669v-6.213h14.27v25.628h-16.503c-3.689-6.601-9.999-9.708-16.6-9.708
						c-10.096,0-18.348,7.669-18.348,18.445c0,10.679,8.252,19.416,18.736,19.416c6.698,0,12.814-3.592,16.212-9.999h18.736
						C962.112,717.502,946.482,727.209,932.309,727.209z"/>
					<path d="M990.847,701.678v9.708h5.436v14.367h-26.502v-14.367h5.533v-23.978h-5.533v-14.27h19.61v7.96
						c4.271-6.407,8.543-8.252,14.95-8.64v15.824C995.506,688.864,990.847,693.523,990.847,701.678z"/>
					<path d="M1058.898,705.27h-39.025c2.524,5.533,7.475,8.446,12.814,8.446c3.592,0,6.795-1.165,9.028-3.592h15.726
						c-4.271,10.29-13.882,17.377-24.852,17.377c-14.853,0-27.667-11.552-27.667-27.861c0-15.921,12.329-27.861,27.279-27.861
						c14.465,0,27.279,11.261,27.279,27.473C1059.772,701.678,1059.384,703.717,1058.898,705.27z M1032.299,685.369
						c-5.242,0-10.29,3.204-12.329,8.64h25.628C1042.977,688.087,1037.638,685.369,1032.299,685.369z"/>
					<path d="M1102.874,725.753v-4.466c-3.398,3.98-8.446,6.116-14.464,6.116c-14.659,0-26.405-12.717-26.405-27.667
						c0-15.532,12.329-28.152,26.988-28.152c5.922,0,10.387,2.233,13.882,6.698v-5.145h21.066v14.27h-5.533v24.075h5.533v14.367
						h-21.066V725.753z M1090.545,686.825c-6.99,0-12.717,5.728-12.717,12.814c0,6.99,5.63,12.523,12.62,12.523
						c6.892,0,12.523-5.728,12.523-12.814C1102.971,692.456,1097.438,686.825,1090.545,686.825z"/>
					<path d="M1133.648,725.753v-38.346h-7.184v-14.27h7.184v-17.086h15.532v17.086h7.184v14.27h-7.184v23.978h7.475v14.367
						H1133.648z"/>
					<path d="M1212.766,705.27h-39.025c2.524,5.533,7.475,8.446,12.814,8.446c3.592,0,6.795-1.165,9.028-3.592h15.726
						c-4.271,10.29-13.882,17.377-24.852,17.377c-14.853,0-27.667-11.552-27.667-27.861c0-15.921,12.329-27.861,27.279-27.861
						c14.465,0,27.279,11.261,27.279,27.473C1213.446,701.678,1213.057,703.717,1212.766,705.27z M1185.973,685.369
						c-5.242,0-10.29,3.204-12.329,8.64h25.629C1196.748,688.087,1191.506,685.369,1185.973,685.369z"/>
				</g>
			</g>
		</g>
	</g>
	<rect x="1218.688" y="706.435" fill="#E72171" width="20.289" height="20.095"/>
</g>
</svg>
